<mxfile host="65bd71144e">
    <diagram id="fYzPEleQLotx3eP_kdiN" name="Class Diagram">
        <mxGraphModel dx="1013" dy="800" grid="1" gridSize="10" guides="1" tooltips="1" connect="1" arrows="1" fold="1" page="1" pageScale="1" pageWidth="850" pageHeight="1100" math="0" shadow="0">
            <root>
                <mxCell id="0"/>
                <mxCell id="1" parent="0"/>
                <mxCell id="BqHOSl2TJnI5PnltlmTh-1" value="Class1" style="swimlane;fontStyle=1;align=center;verticalAlign=middle;childLayout=stackLayout;horizontal=1;startSize=29;horizontalStack=0;resizeParent=1;resizeParentMax=0;resizeLast=0;collapsible=0;marginBottom=0;html=1;whiteSpace=wrap;" vertex="1" parent="1">
                    <mxGeometry x="120" y="200" width="140" height="79" as="geometry"/>
                </mxCell>
                <mxCell id="BqHOSl2TJnI5PnltlmTh-2" value="&amp;lt;&amp;lt;stereotype1&amp;gt;&amp;gt;" style="text;html=1;strokeColor=none;fillColor=none;align=center;verticalAlign=middle;spacingLeft=4;spacingRight=4;overflow=hidden;rotatable=0;points=[[0,0.5],[1,0.5]];portConstraint=eastwest;whiteSpace=wrap;" vertex="1" parent="BqHOSl2TJnI5PnltlmTh-1">
                    <mxGeometry y="29" width="140" height="25" as="geometry"/>
                </mxCell>
                <mxCell id="BqHOSl2TJnI5PnltlmTh-3" value="stereotype property 1" style="text;html=1;strokeColor=none;fillColor=none;align=left;verticalAlign=middle;spacingLeft=4;spacingRight=4;overflow=hidden;rotatable=0;points=[[0,0.5],[1,0.5]];portConstraint=eastwest;whiteSpace=wrap;" vertex="1" parent="BqHOSl2TJnI5PnltlmTh-1">
                    <mxGeometry y="54" width="140" height="25" as="geometry"/>
                </mxCell>
            </root>
        </mxGraphModel>
    </diagram>
    <diagram id="pKWWX6GbZWqfkFn6mb9Y" name="Sequence Diagram">
        <mxGraphModel dx="699" dy="-548" grid="1" gridSize="10" guides="1" tooltips="1" connect="1" arrows="1" fold="1" page="1" pageScale="1" pageWidth="850" pageHeight="1100" math="0" shadow="0">
            <root>
                <mxCell id="0"/>
                <mxCell id="1" parent="0"/>
                <mxCell id="weOtXVEWLZT7Uh8NZfo7-1" value="" style="endArrow=none;html=1;" edge="1" parent="1">
                    <mxGeometry width="50" height="50" relative="1" as="geometry">
                        <mxPoint x="240" y="1800" as="sourcePoint"/>
                        <mxPoint x="240" y="1400" as="targetPoint"/>
                    </mxGeometry>
                </mxCell>
                <mxCell id="weOtXVEWLZT7Uh8NZfo7-2" value="" style="endArrow=none;html=1;" edge="1" parent="1">
                    <mxGeometry width="50" height="50" relative="1" as="geometry">
                        <mxPoint x="400" y="1800" as="sourcePoint"/>
                        <mxPoint x="400" y="1400" as="targetPoint"/>
                    </mxGeometry>
                </mxCell>
                <mxCell id="weOtXVEWLZT7Uh8NZfo7-3" value="" style="endArrow=none;html=1;" edge="1" parent="1">
                    <mxGeometry width="50" height="50" relative="1" as="geometry">
                        <mxPoint x="560" y="1800" as="sourcePoint"/>
                        <mxPoint x="560" y="1400" as="targetPoint"/>
                    </mxGeometry>
                </mxCell>
                <mxCell id="weOtXVEWLZT7Uh8NZfo7-4" value="User" style="shape=umlActor;verticalLabelPosition=bottom;verticalAlign=top;html=1;outlineConnect=0;" vertex="1" parent="1">
                    <mxGeometry x="230" y="1340" width="20" height="40" as="geometry"/>
                </mxCell>
                <mxCell id="weOtXVEWLZT7Uh8NZfo7-5" value="frontend" style="whiteSpace=wrap;html=1;" vertex="1" parent="1">
                    <mxGeometry x="350" y="1370" width="90" height="30" as="geometry"/>
                </mxCell>
                <mxCell id="weOtXVEWLZT7Uh8NZfo7-6" value="backend" style="whiteSpace=wrap;html=1;" vertex="1" parent="1">
                    <mxGeometry x="510" y="1370" width="90" height="30" as="geometry"/>
                </mxCell>
                <mxCell id="weOtXVEWLZT7Uh8NZfo7-7" value="blog posts page" style="edgeStyle=none;orthogonalLoop=1;jettySize=auto;html=1;" edge="1" parent="1">
                    <mxGeometry y="20" width="100" relative="1" as="geometry">
                        <mxPoint x="250" y="1450" as="sourcePoint"/>
                        <mxPoint x="390" y="1450" as="targetPoint"/>
                        <Array as="points"/>
                        <mxPoint as="offset"/>
                    </mxGeometry>
                </mxCell>
                <mxCell id="weOtXVEWLZT7Uh8NZfo7-8" value="request all data&lt;br&gt;for blog posts&amp;nbsp;" style="edgeStyle=none;orthogonalLoop=1;jettySize=auto;html=1;" edge="1" parent="1">
                    <mxGeometry x="0.0133" y="20" width="100" relative="1" as="geometry">
                        <mxPoint x="404" y="1470" as="sourcePoint"/>
                        <mxPoint x="554" y="1470" as="targetPoint"/>
                        <Array as="points"/>
                        <mxPoint as="offset"/>
                    </mxGeometry>
                </mxCell>
                <mxCell id="weOtXVEWLZT7Uh8NZfo7-9" value="" style="edgeStyle=none;orthogonalLoop=1;jettySize=auto;html=1;" edge="1" parent="1">
                    <mxGeometry width="100" relative="1" as="geometry">
                        <mxPoint x="550" y="1534" as="sourcePoint"/>
                        <mxPoint x="410" y="1534" as="targetPoint"/>
                        <Array as="points"/>
                    </mxGeometry>
                </mxCell>
                <mxCell id="weOtXVEWLZT7Uh8NZfo7-10" value="blog posts Data" style="edgeLabel;html=1;align=center;verticalAlign=middle;resizable=0;points=[];" vertex="1" connectable="0" parent="weOtXVEWLZT7Uh8NZfo7-9">
                    <mxGeometry x="0.1164" relative="1" as="geometry">
                        <mxPoint y="-14" as="offset"/>
                    </mxGeometry>
                </mxCell>
                <mxCell id="weOtXVEWLZT7Uh8NZfo7-11" value="" style="edgeStyle=none;orthogonalLoop=1;jettySize=auto;html=1;" edge="1" parent="1">
                    <mxGeometry width="100" relative="1" as="geometry">
                        <mxPoint x="390" y="1560" as="sourcePoint"/>
                        <mxPoint x="250" y="1560" as="targetPoint"/>
                        <Array as="points"/>
                    </mxGeometry>
                </mxCell>
                <mxCell id="weOtXVEWLZT7Uh8NZfo7-12" value="show blogbosts to user" style="edgeLabel;html=1;align=center;verticalAlign=middle;resizable=0;points=[];" vertex="1" connectable="0" parent="weOtXVEWLZT7Uh8NZfo7-11">
                    <mxGeometry x="0.1164" relative="1" as="geometry">
                        <mxPoint x="18" y="-10" as="offset"/>
                    </mxGeometry>
                </mxCell>
                <mxCell id="weOtXVEWLZT7Uh8NZfo7-13" value="" style="endArrow=classic;html=1;" edge="1" parent="1">
                    <mxGeometry width="50" height="50" relative="1" as="geometry">
                        <mxPoint x="560" y="1680" as="sourcePoint"/>
                        <mxPoint x="560" y="1720" as="targetPoint"/>
                        <Array as="points">
                            <mxPoint x="610" y="1680"/>
                            <mxPoint x="610" y="1720"/>
                        </Array>
                    </mxGeometry>
                </mxCell>
                <mxCell id="weOtXVEWLZT7Uh8NZfo7-14" value="save contact&lt;br&gt;and send notfication&amp;nbsp;&lt;br&gt;mail to website owner&amp;nbsp;" style="edgeLabel;html=1;align=center;verticalAlign=middle;resizable=0;points=[];" vertex="1" connectable="0" parent="weOtXVEWLZT7Uh8NZfo7-13">
                    <mxGeometry x="0.1057" y="1" relative="1" as="geometry">
                        <mxPoint x="69" y="-7" as="offset"/>
                    </mxGeometry>
                </mxCell>
                <mxCell id="weOtXVEWLZT7Uh8NZfo7-17" value="submit contact form" style="edgeStyle=none;orthogonalLoop=1;jettySize=auto;html=1;" edge="1" parent="1">
                    <mxGeometry y="10" width="100" relative="1" as="geometry">
                        <mxPoint x="250" y="1620" as="sourcePoint"/>
                        <mxPoint x="390" y="1620" as="targetPoint"/>
                        <Array as="points"/>
                        <mxPoint as="offset"/>
                    </mxGeometry>
                </mxCell>
                <mxCell id="weOtXVEWLZT7Uh8NZfo7-18" value="&lt;span style=&quot;orphans: 2; text-align: left; text-indent: 0px; widows: 2; background-color: rgb(255, 255, 255); text-decoration-thickness: initial; text-decoration-style: initial; text-decoration-color: initial; float: none; display: inline !important; color: rgb(0, 0, 0);&quot;&gt;&lt;b style=&quot;color: light-dark(rgb(0, 0, 0), rgb(237, 237, 237)); font-family: Gilroy-Regular; font-size: 16px; font-style: normal; font-variant-ligatures: normal; font-variant-caps: normal; letter-spacing: normal; text-transform: none; word-spacing: 0px; -webkit-text-stroke-width: 0px; white-space: normal;&quot;&gt;&amp;nbsp;portfolio website &lt;/b&gt;&lt;font face=&quot;Gilroy-Regular&quot;&gt;&lt;span style=&quot;font-size: 16px;&quot;&gt;&lt;b&gt;Sequence Diagram&lt;/b&gt;&lt;/span&gt;&lt;/font&gt;&lt;b style=&quot;color: light-dark(rgb(0, 0, 0), rgb(237, 237, 237)); font-family: Gilroy-Regular; font-size: 16px; font-style: normal; font-variant-ligatures: normal; font-variant-caps: normal; letter-spacing: normal; text-transform: none; word-spacing: 0px; -webkit-text-stroke-width: 0px; white-space: normal;&quot;&gt;.&lt;/b&gt;&lt;/span&gt;" style="text;whiteSpace=wrap;html=1;" vertex="1" parent="1">
                    <mxGeometry x="290" y="1280" width="270" height="40" as="geometry"/>
                </mxCell>
                <mxCell id="weOtXVEWLZT7Uh8NZfo7-19" value="request save&amp;nbsp; data&lt;br&gt;of contact&amp;nbsp;" style="edgeStyle=none;orthogonalLoop=1;jettySize=auto;html=1;" edge="1" parent="1">
                    <mxGeometry x="0.0133" y="20" width="100" relative="1" as="geometry">
                        <mxPoint x="400" y="1649" as="sourcePoint"/>
                        <mxPoint x="550" y="1649" as="targetPoint"/>
                        <Array as="points"/>
                        <mxPoint as="offset"/>
                    </mxGeometry>
                </mxCell>
                <mxCell id="weOtXVEWLZT7Uh8NZfo7-20" value="" style="edgeStyle=none;orthogonalLoop=1;jettySize=auto;html=1;" edge="1" parent="1">
                    <mxGeometry width="100" relative="1" as="geometry">
                        <mxPoint x="550" y="1750" as="sourcePoint"/>
                        <mxPoint x="410" y="1750" as="targetPoint"/>
                        <Array as="points"/>
                    </mxGeometry>
                </mxCell>
                <mxCell id="weOtXVEWLZT7Uh8NZfo7-21" value="contact saved sucessfuly" style="edgeLabel;html=1;align=center;verticalAlign=middle;resizable=0;points=[];" vertex="1" connectable="0" parent="weOtXVEWLZT7Uh8NZfo7-20">
                    <mxGeometry x="0.1164" relative="1" as="geometry">
                        <mxPoint y="-14" as="offset"/>
                    </mxGeometry>
                </mxCell>
                <mxCell id="weOtXVEWLZT7Uh8NZfo7-22" value="" style="edgeStyle=none;orthogonalLoop=1;jettySize=auto;html=1;" edge="1" parent="1">
                    <mxGeometry width="100" relative="1" as="geometry">
                        <mxPoint x="390" y="1780" as="sourcePoint"/>
                        <mxPoint x="250" y="1780" as="targetPoint"/>
                        <Array as="points"/>
                    </mxGeometry>
                </mxCell>
                <mxCell id="weOtXVEWLZT7Uh8NZfo7-23" value="we will contact you later" style="edgeLabel;html=1;align=center;verticalAlign=middle;resizable=0;points=[];" vertex="1" connectable="0" parent="weOtXVEWLZT7Uh8NZfo7-22">
                    <mxGeometry x="0.1164" relative="1" as="geometry">
                        <mxPoint y="-14" as="offset"/>
                    </mxGeometry>
                </mxCell>
            </root>
        </mxGraphModel>
    </diagram>
    <diagram id="5LCodo-1hz5C3JgasL8v" name="SDLC">
        <mxGraphModel dx="1013" dy="800" grid="1" gridSize="10" guides="1" tooltips="1" connect="1" arrows="1" fold="1" page="1" pageScale="1" pageWidth="850" pageHeight="1100" math="0" shadow="0">
            <root>
                <mxCell id="0"/>
                <mxCell id="1" parent="0"/>
            </root>
        </mxGraphModel>
    </diagram>
</mxfile>